<svg width="142" height="142" viewBox="0 0 142 142" fill="none" xmlns="http://www.w3.org/2000/svg">
<g clip-path="url(#clip0_14_168)">
<path d="M0 32C0 14.3269 14.3269 0 32 0H110C127.673 0 142 14.3269 142 32V110C142 127.673 127.673 142 110 142H32C14.3269 142 0 127.673 0 110V32Z" fill="white"/>
<path d="M11 39C11 23.536 23.536 11 39 11H103C118.464 11 131 23.536 131 39V103C131 118.464 118.464 131 103 131H39C23.536 131 11 118.464 11 103V39Z" fill="#333333"/>
<path fill-rule="evenodd" clip-rule="evenodd" d="M99.0751 39.3696C100.059 38.3134 100.595 36.9165 100.57 35.4731C100.544 34.0298 99.9594 32.6526 98.9386 31.6318C97.9178 30.6111 96.5406 30.0263 95.0973 30.0009C93.6539 29.9754 92.257 30.5112 91.2008 31.4953L57.4751 65.2062L57.3042 65.377L20.6294 102.067C19.8512 102.846 19.3214 103.838 19.1068 104.918C18.8922 105.998 19.0025 107.118 19.4238 108.135C19.8451 109.153 20.5585 110.023 21.4738 110.635C22.3891 111.247 23.4653 111.574 24.5665 111.575H117.424C118.901 111.575 120.318 110.988 121.363 109.943C122.408 108.899 122.995 107.482 122.995 106.004C122.995 104.526 122.408 103.109 121.363 102.064C120.318 101.019 118.901 100.432 117.424 100.432H81.8705C80.7637 89.0506 76.2923 78.2562 69.0265 69.4256L99.0751 39.3696ZM61.1002 77.3519L38.0197 100.432H70.6608C69.6426 92.0099 66.336 84.0274 61.1002 77.3519Z" fill="#DF6146"/>
</g>
<defs>
<clipPath id="clip0_14_168">
<rect width="142" height="142" fill="white"/>
</clipPath>
</defs>
</svg>
